<svg xmlns="http://www.w3.org/2000/svg" xmlns:xlink="http://www.w3.org/1999/xlink" version="1.1" x="0px" y="0px" viewBox="0 0 100 125" enable-background="new 0 0 100 100" xml:space="preserve"><g><path d="M60.402,31.465h10.797v-5.127H60.411c-2.12,0-3.95-0.191-4.785-0.467c1.013-0.162,2.341-0.26,3.795-0.26h11.778v-0.879   H60.411c-2.91,0-5.269,0.359-5.269,0.803l-6.431-0.001v8.856l6.428,0.003c0.741,1.039,2.968,1.659,5.271,1.659h10.788v-2.663   H60.402c-2.187,0-4.061-0.242-4.86-0.588C56.332,32.019,58.21,31.467,60.402,31.465L60.402,31.465z M47.808,36.416v8.131   c0,0.291,0.236,0.527,0.526,0.527h25.065c0.291,0,0.526-0.236,0.526-0.527v-8.131h-2.727v5.092H60.411   c-1.26,0-3.81,0.144-4.988,0.837c-0.28,0.166-0.544,0.407-0.544,0.739c0,0.7,1.118,1.091,2.354,1.309h-8.257   c-0.146,0-0.264-0.118-0.264-0.264v-7.713H47.808L47.808,36.416z M57.281,52.595c-0.47,1.148-0.996,2.421-1.164,2.725   c-0.324,0.583-1.314,1.875-1.314,1.875c-0.729,0.953-1.161,1.953-1.161,3.146c0,2.958,2.568,5.441,6.062,6.14l-0.717,1.251   c-4.499-0.104-8.106-4.496-8.106-9.901c0-0.437,0.024-0.867,0.071-1.287c0,0-2.133-0.413-3.043-0.836   c-0.59-0.272-1.119-0.608-1.425-0.817c-2.485,1.643-3.903,4.073-3.815,7.05c0.238,8.054,6.315,8.562,12.933,7.753   c7.391-0.903,11.611-5.183,11.076-10.276C66.239,55.245,62.54,52.948,57.281,52.595L57.281,52.595z M26.182,35.617   c1.089-1.951,3.737-3.357,6.317-4.057c0,0,0.243-1.261-2.58-3.124c-1.143-0.754-2.473-1.121-3.789-1.26l-0.528-1.312l0.527-0.676   c0.73,0.082,1.546,0.22,2.353,0.421c0.832,0.208,1.616,0.46,2.325,0.747c0.962,1.347,2.093,2.41,3.255,2.381   c1.506-0.037,3.178-2.683,4.382-5.067c1.233,0.276,2.401,0.627,3.483,1.013c0.375-0.952,0.452-1.554,0.452-1.554   c0.453-1.784,1.908-1.641,2.982-1.641h31.973c1.566,1.227,2.944,1.25,2.944,1.25h5.574c0,0,4.4-0.92,8.194-1.947   c3.958-1.07,4.741,2.57,4.741,2.57c0.447,1.32,0.735,3.09,0.735,5.037c0,1.822-0.245,3.49-0.651,4.779c0,0-0.022,1.125-0.108,2.312   c-0.084,1.188-0.14,1.486-0.557,1.486h-6.8v-1.037c0,0-0.124,0.348-0.209,0.575c-0.157,0.417-0.861,0.382-0.861,0.382H87.26v-0.226   h-1.365v0.304l-2.972,0v0.675c0,0-0.397,0.931-0.856,1.573c-0.46,0.642-1.647,2.686-1.647,5.317l0.079,9.133   c-0.622-0.052-1.301-0.106-2.042-0.164c-7.854-0.604-9.992,2.276-9.944,6.645c0.047,4.229-1.856,10.196-13.987,11.479   c-12.163,1.285-13.331-6.906-13.331-6.906c-1.258-6.848-3.489-8.243-6.436-8.547c-5.944-0.612-10.773,5.661-12.578,14.95   c-0.146,0.749-0.271,1.491-0.349,2.226c0,0-1.004,7.043-1.843,15.649c-0.075,0.936-0.809,1.62-1.72,1.62H3.219   c-0.911,0-1.676-0.316-1.917-1.971C-1.185,72.54,3.177,63.446,10.655,55.06c8.982-10.074,8.012-16.641,8.012-16.641   c-0.076-1.449-0.033-1.675,1.18-1.793C22.194,36.396,24.297,36.051,26.182,35.617L26.182,35.617z M71.199,41.771v1.33   c0,0.02-0.003,0.041-0.009,0.059H59.875c-1.924,0-3.62-0.142-4.61-0.357c0.519-0.59,2.625-1.032,5.146-1.032H71.199L71.199,41.771z   "/></g><text x="0" y="115" fill="#000000" font-size="5px" font-weight="bold" font-family="'Helvetica Neue', Helvetica, Arial-Unicode, Arial, Sans-serif">Created by Simon Child</text><text x="0" y="120" fill="#000000" font-size="5px" font-weight="bold" font-family="'Helvetica Neue', Helvetica, Arial-Unicode, Arial, Sans-serif">from the Noun Project</text></svg>