<svg xmlns="http://www.w3.org/2000/svg" xmlns:xlink="http://www.w3.org/1999/xlink" version="1.1" x="0px" y="0px" viewBox="0 0 230.063 308.86125" style="enable-background:new 0 0 230.063 247.089;" xml:space="preserve"><g><ellipse transform="matrix(0.129 -0.9916 0.9916 0.129 122.4003 190.1453)" cx="169.446" cy="25.393" rx="22.5" ry="22.5"/><path d="M113.065,54.416c-0.201,0.042-0.4,0.089-0.601,0.134c0.168,0.054,0.335,0.111,0.5,0.174   C112.996,54.622,113.031,54.519,113.065,54.416z"/><path d="M159.376,70.374c-2.552,7.181-8.08,12.436-14.719,14.845c2.846,3.367,5.176,6.312,7.063,8.929l1.442,0.854   c0.064,0.485,0.119,0.974,0.166,1.466c1.966,2.956,3.127,5.161,3.906,7.388c0.639,2.035,1.223,4.406,0.328,7.56   c-0.63,2.243-2.338,4.445-4.346,5.613c-1.212,0.734-2.368,1.111-3.36,1.314c-0.793,2.119-1.721,4.326-2.812,6.646   c-0.514,1.482-1.441,3.397-2.133,5.259l-50.137,85.062c-3.505,5.946-1.526,13.61,4.42,17.115c1.993,1.174,4.18,1.733,6.337,1.733   c4.281,0,8.45-2.2,10.78-6.156l53.633-90.991c1.231-0.026,2.47,0.005,3.717,0.12l21.681,34.173l-2.781,50.667   c-0.378,6.893,4.903,12.788,11.797,13.166c0.232,0.013,0.465,0.019,0.695,0.019c6.592,0,12.105-5.155,12.473-11.815l2.999-54.667   c0.143-2.61-0.525-5.175-1.928-7.381l-24.813-39.113c0.671-1.958,1.316-3.866,1.933-5.733c-2.709,0.698-5.574,1.365-8.645,2.002   c-0.666,0.14-1.352,0.208-2.036,0.208c-4.715,0-8.831-3.354-9.785-7.977c-0.542-2.615-0.03-5.287,1.437-7.519   c0.453-0.689,0.988-1.302,1.578-1.848l-16.079-23.25l0.449-12.083l21.714,32.597c6.964-1.492,12.821-3.17,17.444-4.996   c1.007-5.736,1.56-11.629,1.563-18.097c1.951,1.307,3.842,2.719,5.452,4.169c1.869,1.666,3.351,3.364,4.2,4.744   c0.516,0.827,0.788,1.485,0.926,1.978c0.095,0.342,0.128,0.606,0.124,0.783c-0.061,0.471,0.055,0.919-1.519,2.575l-0.002-0.001   c-1.417,1.42-4.328,3.397-9.109,5.356c-4.775,1.972-11.367,3.949-20.004,5.733c-4.328,0.894-7.111,5.126-6.217,9.455   c0.781,3.781,4.112,6.383,7.828,6.383c0.537,0,1.082-0.054,1.628-0.167c9.341-1.935,16.818-4.123,22.862-6.612   c5.991-2.48,10.62-5.236,14.155-8.668c0.028-0.027,0.06-0.051,0.088-0.079c1.805-1.733,3.288-3.76,4.363-5.934   c1.262-2.55,1.959-5.305,1.927-8.041c-0.052-5.979-2.779-10.758-5.898-14.586c-4.776-5.759-11.064-10.098-16.759-13.406   c-2.85-1.638-5.545-2.975-7.881-3.984c-1.173-0.504-2.252-0.926-3.277-1.274c-0.706-0.23-1.347-0.431-2.097-0.598   c-1.956-0.863-3.861-1.316-5.227-1.139c-9.676,1.171-19.35,2.343-29.023,3.515C161.193,60.362,161.121,65.465,159.376,70.374z"/><path d="M4.706,216.171c0.749,0.467,1.537,0.824,2.344,1.073c4.233,1.312,8.979-0.325,11.434-4.262   c17.06-27.336,31.519-42.147,41.311-50.013c3.701,1.722,7.418,3.383,11.145,5.013c-0.93,2.507-1.932,5.406-2.947,8.688   c-4.375,14.136-8.976,35.19-8.524,60.6c0.08,4.427,3.026,8.132,7.038,9.374c0.991,0.306,2.047,0.463,3.141,0.443   c5.522-0.099,9.916-4.655,9.818-10.175c-0.414-22.779,3.74-41.767,7.633-54.327c0.803-2.598,1.593-4.911,2.329-6.933   c5.231,2.055,10.479,4.039,15.749,5.914c2.969-25.814,9.639-50.828,19.636-74.32c0.425,0.249,0.858,0.502,1.304,0.759   c4.981,2.847,10.844,6.033,16.045,7.679c1.834,0.536,3.566,0.999,5.908,0.887c1.166-0.082,2.602-0.334,4.146-1.27   c1.547-0.898,2.938-2.692,3.428-4.428c0.762-2.694,0.24-4.65-0.297-6.358c-0.893-2.562-2.319-4.986-4.454-8.081   c-2.043-2.93-4.759-6.394-8.307-10.565c-3.521,0.933-7.284,1.09-11.041,0.337c-1.37,2.326-1.194,5.358,0.661,7.524   c1.631,1.901,3.062,3.633,4.305,5.192c-1.338-0.718-2.665-1.461-3.903-2.181c-1.794-1.035-3.44-2.023-4.782-2.847   c-1.2-0.807-2.78-1.891-4.537-3.152c-0.041,0.046-0.075,0.095-0.117,0.141c-1.889,2.045-4.566,3.217-7.35,3.217   c-2.52,0-4.93-0.942-6.779-2.648c-4.119-3.811-7.049-7.117-9.227-10.406c-1.686-2.597-3.92-6.615-3.965-11.685   c-0.015-1.361,0.182-2.741,0.545-4.077c-0.573-0.669-1.144-1.347-1.705-2.026c0.639,0.33,1.312,0.685,2.004,1.054   c0.466-1.356,1.109-2.646,1.924-3.784c1.494-2.122,3.449-3.835,5.969-5.226c0.483-0.268,0.993-0.477,1.511-0.661   c-7.461-4.163-12.806-6.657-16.974-7.972c-2.248-0.663-4.162-1.123-6.633-0.896c-1.225,0.134-2.697,0.514-4.125,1.516   c-1.434,0.979-2.563,2.633-2.996,4.14c-0.868,3.258-0.058,5.22,0.531,6.952c1.197,2.977,3.008,5.642,5.119,8.522   c2.66,3.573,5.842,7.298,8.641,10.419c-21.68,19.87-41.359,43.888-57.692,71.716c2.769,1.487,5.546,2.943,8.33,4.378   C29.473,163.462,16.21,178.85,1.519,202.394C-1.407,207.077,0.022,213.247,4.706,216.171z"/><path d="M123.766,83.221c-9.063-5.391-13.749-16.161-11.334-26.571c-2.159-0.878-4.68-0.813-6.88,0.401   c-1.887,1.043-3.799,2.497-5.309,4.643c-1.521,2.121-2.425,4.955-2.394,7.648c0.035,3.993,1.541,7.375,3.635,10.6   c2.139,3.236,5.043,6.458,8.911,10.038c1.538,1.42,3.484,2.121,5.425,2.121c2.154,0,4.303-0.865,5.881-2.572   C123.335,87.756,124.011,85.444,123.766,83.221z"/><ellipse transform="matrix(0.3348 -0.9423 0.9423 0.3348 32.0741 169.7803)" cx="136.294" cy="62.172" rx="22.495" ry="22.496"/><path d="M89.772,35.638l9.78,5.11c0.222,0.117,0.459,0.172,0.693,0.172c0.54,0,1.063-0.293,1.331-0.805   c0.383-0.734,0.099-1.639-0.634-2.024l-6.519-3.407l7.185-2.159c0.44-0.133,0.801-0.464,0.968-0.895   c0.166-0.428,0.124-0.916-0.111-1.31l-6.771-11.355l9.45,3.713c0.476,0.188,1.011,0.12,1.426-0.178   c0.415-0.299,0.646-0.785,0.62-1.297l-0.622-11.899l7.396,7.946c0.334,0.359,0.824,0.533,1.31,0.464   c0.488-0.07,0.908-0.372,1.13-0.811l5.344-10.632l2.036,12.153c0.083,0.499,0.417,0.927,0.881,1.128   c0.467,0.201,1.006,0.154,1.428-0.126l7.713-5.122l-2.037,7.505c-0.216,0.8,0.255,1.625,1.055,1.84   c0.801,0.218,1.625-0.254,1.843-1.055h-0.002l3.082-11.354c0.164-0.603-0.062-1.243-0.569-1.609   c-0.508-0.366-1.186-0.378-1.708-0.034l-9.108,6.048l-2.412-14.396c-0.106-0.638-0.614-1.139-1.254-1.235   c-0.642-0.096-1.273,0.229-1.564,0.809l-6.438,12.802l-8.737-9.386c-0.429-0.462-1.103-0.606-1.683-0.36   c-0.58,0.246-0.945,0.831-0.911,1.459l0.712,13.692l-11.368-4.466c-0.599-0.235-1.275-0.066-1.692,0.426   c-0.415,0.49-0.476,1.186-0.144,1.738l8.036,13.474l-8.871,2.667c-0.584,0.178-1.001,0.687-1.062,1.295   C88.916,34.776,89.228,35.354,89.772,35.638z"/></g><text x="0" y="262.089" fill="#000000" font-size="5px" font-weight="bold" font-family="'Helvetica Neue', Helvetica, Arial-Unicode, Arial, Sans-serif">Created by Gan Khoon Lay</text><text x="0" y="267.089" fill="#000000" font-size="5px" font-weight="bold" font-family="'Helvetica Neue', Helvetica, Arial-Unicode, Arial, Sans-serif">from the Noun Project</text></svg>