<svg xmlns="http://www.w3.org/2000/svg" xmlns:xlink="http://www.w3.org/1999/xlink" version="1.1" x="0px" y="0px" viewBox="0 0 100 90.406" enable-background="new 0 0 100 90.406" xml:space="preserve"><g><path d="M64.705,65.529l-1.847-3.033C63.246,63.862,63.895,64.857,64.705,65.529z"></path><path d="M88.668,60.032c-1.729-1.727-8.188-6.782-8.188-6.782c-0.606-0.304-1.272-0.457-1.939-0.457   c-0.401,0-0.803,0.056-1.196,0.167l-10.132,2.895c-2.008,0.561-3.212,1.251-3.9,2.05l5.387,8.843   c1.884-0.085,3.72-0.871,4.723-1.873c1.742-1.743,2.9-4.802,5.113-4.842h0.052c2.727-0.002,7.412,3.903,10.082,4.343   c0.088,0.015,0.176,0.021,0.262,0.021C90.259,64.396,91.385,62.749,88.668,60.032z"></path></g><path d="M92.788,64.644c-0.638,1.537-2.151,2.529-3.858,2.529c-0.236,0-0.475-0.019-0.714-0.057  c-1.693-0.279-3.505-1.295-5.42-2.371c-1.245-0.7-3.301-1.854-4.128-1.932c-0.223,0.145-0.564,0.563-0.891,0.993v16.846h15.278  V63.677C92.996,64.057,92.896,64.382,92.788,64.644z"></path><polygon points="95.833,77.875 95.833,83.43 75,83.43 75,77.875 70.833,77.875 70.833,90.375 100,90.375 100,77.875 "></polygon><g><path d="M36.31,90.016c0.103-0.03,0.2-0.073,0.301-0.107c0.249-0.084,0.499-0.166,0.743-0.274c0.355-0.154,0.704-0.333,1.044-0.541   l13.643-8.308l0,0l16.016-9.755l-9.367-15.378L34.204,70.566l-11.95-9.402l1.724-2.178l10.43,8.204l15.845-9.651L50,54.264   l8.104-9.064l-7.737-1.826c0.298-0.929,0.466-1.917,0.466-2.945v-1.833h0.678c2.165,0,3.928-1.763,3.928-3.929   c0-0.54-0.11-1.069-0.328-1.572l-3.995-8.777l6.299,0.378l0.333-5.544l-4.19-0.252L46.11,5.469   c-0.418-0.751-1.158-1.268-2.008-1.398L17.819,0.032c-1.242-0.188-2.464,0.48-2.968,1.636L8.523,16.191l-5.314-0.32l-0.333,5.544   l8.004,0.482c-0.095,0.788-0.159,1.587-0.159,2.4c0,3.753,1.033,7.323,2.923,10.413l-7.333-1.731l4.206,14.107l0.015,0.08   c-1.371,0.557-2.698,1.284-3.929,2.228c-4.67,3.572-6.939,9.111-6.552,14.569L0,63.985v26.39h26.115L9.374,77.446l1.724-2.179   l17.679,13.651c0.349,0.229,0.71,0.431,1.085,0.605c0.273,0.13,0.56,0.23,0.846,0.332c0.09,0.032,0.177,0.073,0.269,0.104   c0.369,0.119,0.746,0.207,1.129,0.277c0.006,0.002,0.01,0.002,0.014,0.004c0.396,0.071,0.792,0.114,1.194,0.134l0,0l0,0   c0.143,0.007,0.284,0.031,0.427,0.031c0.51,0,1.021-0.062,1.528-0.148c0.019-0.004,0.036-0.008,0.054-0.012   C35.654,90.187,35.983,90.114,36.31,90.016z M13.498,24.298c0-0.758,0.066-1.501,0.162-2.234l34.387,2.067   c0,0.057,0.008,0.111,0.008,0.167l4.509,9.902c0.06,0.145,0.098,0.3,0.098,0.466c0,0.636-0.513,1.151-1.15,1.151h-3.456v4.61   c0,0.811-0.165,1.577-0.423,2.302L17.841,35.7C15.15,32.657,13.498,28.68,13.498,24.298z"></path><path d="M44.312,28.91c1.113,0,2.016-0.908,2.016-2.019c0-1.113-0.902-2.017-2.016-2.017c-1.115,0-2.019,0.903-2.019,2.017   C42.293,28.002,43.196,28.91,44.312,28.91z"></path><polygon points="41.634,90.375 52.777,90.375 52.278,83.892  "></polygon></g></svg>