<svg xmlns="http://www.w3.org/2000/svg" xmlns:xlink="http://www.w3.org/1999/xlink" version="1.1" x="0px" y="0px" viewBox="0 0 351.561 295.35125" style="enable-background:new 0 0 351.561 236.281;" xml:space="preserve"><g><path d="M55.104,81.526h21.431c4.614,0,8.43,3.438,9.047,7.883c1.196-0.434,2.399-0.897,3.617-1.429   c4.05-1.764,5.903-6.477,4.14-10.528c-1.765-4.049-6.477-5.902-10.526-4.139c-5.296,2.299-9.692,3.132-13.408,3.134   c-4.968-0.018-8.899-1.44-12.487-3.752c-2.776-1.785-5.259-4.202-7.396-6.81c-8.609,2.79-15.288,3.871-17.54,4.183l-0.02,0.004   l-0.112,0.015c-0.44,0.054-0.849,0.079-1.246,0.079h-0.002c-5.024-0.005-9.285-3.768-9.908-8.758   c-0.334-2.649,0.383-5.271,2.022-7.381c1.638-2.108,4-3.455,6.651-3.788l0.246-0.034l0.509-0.079   c0.608-0.098,1.514-0.253,2.668-0.486c1.968-0.396,5.007-1.089,8.622-2.176c-1.734-2.24-3.995-3.861-6.721-4.481   C26.111,41.031,13.833,45.92,9.1,60.663c-6.388,20.311-7.58,33.468-4.538,55.625c1.947,9.024,6.304,13.42,11.373,15.485   c-0.016,17.659-2.198,51.623-15.153,86.532c-2.398,6.473,0.907,13.666,7.381,16.064c1.432,0.53,2.898,0.781,4.34,0.781   c5.08,0,9.857-3.12,11.726-8.163c14.521-39.291,16.69-76.2,16.71-95.655c-0.002-8.757-0.455-13.98-0.483-14.295   c-0.084-0.941-0.278-1.846-0.555-2.71c-1.031-10.842,0.389-22.582,2.131-33.067c1.656,1.543,3.475,3.009,5.459,4.359   C49.129,83.155,51.929,81.526,55.104,81.526z"/><path d="M344.418,83.526h-21.431c-3.946,0-7.145,3.199-7.145,7.145v3.572h-7.615c-5.573-14.79-15.452-41.1-17.297-46.618   c-1.576-4.961-5.721-7.713-10.554-8.896c-4.881-1.266-10.884-1.57-18.223-2.187c-15.982-1.333-45.072-2.654-62.394-2.654   c-17.33,0-46.416,1.321-62.396,2.654c-7.337,0.616-13.343,0.921-18.226,2.187c-4.827,1.183-8.979,3.935-10.556,8.896   c-0.687,2.062-2.496,7.023-4.784,13.203l-8.024-28.014c-1.021,1.633-2.134,3.22-3.314,4.769l8.695,30.357   c-3.056,8.197-6.463,17.262-9.115,24.304c-0.259,0.687-0.511,1.354-0.754,1.999h-7.606v-3.572c0-3.945-3.199-7.145-7.144-7.145   H55.105c-3.944,0-7.143,3.199-7.143,7.145v7.143c0,3.945,3.198,7.144,7.143,7.144h25.003h3.571h3.563l-0.758,2.001l-0.007,0.021   c-7.727,3.886-25.617,14.564-25.617,30.124c0,19.845,0,42.861,0,42.861h97.825v-35.717h10.716v35.717h7.143v-35.717h10.715v35.717   h7.143v-35.717h10.716v35.717h7.143v-35.717h10.717v35.717h7.143v-35.717h10.715v35.717h97.826c0,0,0-23.017,0-42.861   c0-15.566-17.902-26.245-25.624-30.128l-0.765-2.018h3.57h3.573h25.002c3.944,0,7.143-3.198,7.143-7.144v-7.143   C351.561,86.726,348.363,83.526,344.418,83.526z M107.437,73.529c2.935-6.023,5.376-11.171,6.231-13.737   c1.067-2.973,2.776-4.237,6.83-5.4c4.005-1.063,9.902-1.422,17.311-2.037c15.759-1.314,44.874-2.633,61.951-2.633   c17.069,0,46.189,1.318,61.948,2.633c7.407,0.615,13.309,0.974,17.307,2.037c4.053,1.163,5.77,2.428,6.833,5.4   c2.258,6.76,15.498,31.405,19.828,42.881H95.987h-2.001v-0.385c0.551-1.432,1.229-3.05,2.001-4.806   c2.319-5.271,5.474-11.745,8.497-17.919l5.652,19.731l4.326-1.239L107.437,73.529z M103.327,162.503   c-9.868,0-17.861-7.995-17.861-17.858c0-9.864,7.993-17.858,17.861-17.858c9.857,0,17.855,7.994,17.855,17.858   C121.182,154.508,113.184,162.503,103.327,162.503z M296.202,162.503c-9.867,0-17.862-7.995-17.862-17.858   c0-9.864,7.995-17.858,17.862-17.858c9.858,0,17.855,7.994,17.855,17.858C314.057,154.508,306.059,162.503,296.202,162.503z"/><path d="M191.429,64.367h16.664c2.302,0,4.167-1.867,4.167-4.166c0-2.303-1.865-4.167-4.167-4.167h-16.664   c-2.302,0-4.166,1.864-4.166,4.167C187.263,62.5,189.127,64.367,191.429,64.367z"/><path d="M56.891,184.424c0,0,0,18.522,11.903,18.522c0.563,0,1.366,0,2.383,0v26.191c0,3.944,3.195,7.144,7.144,7.144h28.575   c3.94,0,7.144-3.199,7.144-7.144V214.85c42.607,0,137.02,0,175.796,0v14.758c0,3.686,2.984,6.674,6.673,6.674h26.692   c3.682,0,6.673-2.988,6.673-6.674v-26.661c0.321,0,0.616,0,0.853,0c11.904,0,11.904-18.522,11.904-18.522h-142.87H56.891z"/><path d="M103.327,130.755c-7.666,0-13.893,6.223-13.893,13.893c0,7.659,6.227,13.886,13.893,13.886   c7.656,0,13.89-6.227,13.89-13.886C117.216,136.978,110.983,130.755,103.327,130.755z"/><path d="M296.202,130.759c-7.66,0-13.883,6.227-13.883,13.882c0,7.666,6.223,13.893,13.883,13.893   c7.66,0,13.887-6.227,13.887-13.893C310.088,136.985,303.862,130.759,296.202,130.759z"/><path d="M78.855,22.149c-1.227-9.173-8.077-17.005-17.648-19.026C49.051,0.554,37.115,8.326,34.545,20.479   c-2.212,10.475,3.258,20.781,12.589,25.075c6.378-2.353,14.079-5.978,20.813-11.364C72.451,30.6,76.096,26.56,78.855,22.149z"/><path d="M86.375,0l-4.326,1.239l3.567,12.453c1.347-0.663,2.837-1.044,4.382-1.046L86.375,0z"/><path d="M33.185,51.601c-1.192,0.24-2.125,0.401-2.74,0.499c-0.309,0.052-0.536,0.083-0.676,0.104   c-0.141,0.02-0.153,0.02-0.153,0.02c-4.385,0.552-7.492,4.552-6.94,8.937c0.507,4.045,3.953,7.003,7.927,7.004   c0.334,0,0.67-0.021,1.01-0.063h-0.002c0.45-0.068,12.018-1.518,25.963-7.313c6.97-2.906,14.554-6.914,21.599-12.524   c7.033-5.602,13.546-12.865,18.03-22.129c1.927-3.977,0.266-8.761-3.711-10.688c-3.977-1.927-8.761-0.264-10.686,3.713   c-3.265,6.734-8.051,12.16-13.607,16.593C60.89,42.396,50.857,46.639,42.94,49.092C38.986,50.322,35.568,51.121,33.185,51.601z"/></g><text x="0" y="251.281" fill="#000000" font-size="5px" font-weight="bold" font-family="'Helvetica Neue', Helvetica, Arial-Unicode, Arial, Sans-serif">Created by Gan Khoon Lay</text><text x="0" y="256.281" fill="#000000" font-size="5px" font-weight="bold" font-family="'Helvetica Neue', Helvetica, Arial-Unicode, Arial, Sans-serif">from the Noun Project</text></svg>